<?xml version="1.0" encoding="UTF-8"?>
<svg width="233px" height="100px" viewBox="0 0 233 100" version="1.1" xmlns="http://www.w3.org/2000/svg" xmlns:xlink="http://www.w3.org/1999/xlink">
    <!-- Generator: Sketch 50.2 (55047) - http://www.bohemiancoding.com/sketch -->
    <title>Group</title>
    <desc>Created with Sketch.</desc>
    <defs>
        <path d="M0.354,118.589 C0.354,183.758 53.184,236.589 118.354,236.589 C183.524,236.589 236.354,183.758 236.354,118.589 C236.354,53.42 183.524,0.589 118.354,0.589 C53.184,0.589 0.354,53.42 0.354,118.589" id="path-1"></path>
        <path d="M0.354,118.589 C0.354,183.758 53.184,236.589 118.354,236.589 C183.524,236.589 236.354,183.758 236.354,118.589 C236.354,53.42 183.524,0.589 118.354,0.589 C53.184,0.589 0.354,53.42 0.354,118.589" id="path-3"></path>
        <path d="M0.354,118.589 C0.354,183.758 53.184,236.589 118.354,236.589 C183.524,236.589 236.354,183.758 236.354,118.589 C236.354,53.42 183.524,0.589 118.354,0.589 C53.184,0.589 0.354,53.42 0.354,118.589" id="path-5"></path>
        <path d="M0.354,118.589 C0.354,183.758 53.184,236.589 118.354,236.589 C183.524,236.589 236.354,183.758 236.354,118.589 C236.354,53.42 183.524,0.589 118.354,0.589 C53.184,0.589 0.354,53.42 0.354,118.589" id="path-7"></path>
        <path d="M0.354,118.589 C0.354,183.758 53.184,236.589 118.354,236.589 C183.524,236.589 236.354,183.758 236.354,118.589 C236.354,53.42 183.524,0.589 118.354,0.589 C53.184,0.589 0.354,53.42 0.354,118.589" id="path-9"></path>
        <path d="M0.354,118.589 C0.354,183.758 53.184,236.589 118.354,236.589 C183.524,236.589 236.354,183.758 236.354,118.589 C236.354,53.42 183.524,0.589 118.354,0.589 C53.184,0.589 0.354,53.42 0.354,118.589" id="path-11"></path>
        <path d="M0.354,118.589 C0.354,183.758 53.184,236.589 118.354,236.589 C183.524,236.589 236.354,183.758 236.354,118.589 C236.354,53.42 183.524,0.589 118.354,0.589 C53.184,0.589 0.354,53.42 0.354,118.589" id="path-13"></path>
        <path d="M0.354,118.589 C0.354,183.758 53.184,236.589 118.354,236.589 C183.524,236.589 236.354,183.758 236.354,118.589 C236.354,53.42 183.524,0.589 118.354,0.589 C53.184,0.589 0.354,53.42 0.354,118.589" id="path-15"></path>
        <path d="M0.354,118.589 C0.354,183.758 53.184,236.589 118.354,236.589 C183.524,236.589 236.354,183.758 236.354,118.589 C236.354,53.42 183.524,0.589 118.354,0.589 C53.184,0.589 0.354,53.42 0.354,118.589" id="path-17"></path>
        <path d="M0.354,118.589 C0.354,183.758 53.184,236.589 118.354,236.589 C183.524,236.589 236.354,183.758 236.354,118.589 C236.354,53.42 183.524,0.589 118.354,0.589 C53.184,0.589 0.354,53.42 0.354,118.589" id="path-19"></path>
        <path d="M0.354,118.589 C0.354,183.758 53.184,236.589 118.354,236.589 C183.524,236.589 236.354,183.758 236.354,118.589 C236.354,53.42 183.524,0.589 118.354,0.589 C53.184,0.589 0.354,53.42 0.354,118.589" id="path-21"></path>
        <path d="M0.354,118.589 C0.354,183.758 53.184,236.589 118.354,236.589 C183.524,236.589 236.354,183.758 236.354,118.589 C236.354,53.42 183.524,0.589 118.354,0.589 C53.184,0.589 0.354,53.42 0.354,118.589" id="path-23"></path>
        <path d="M0.354,118.589 C0.354,183.758 53.184,236.589 118.354,236.589 C183.524,236.589 236.354,183.758 236.354,118.589 C236.354,53.42 183.524,0.589 118.354,0.589 C53.184,0.589 0.354,53.42 0.354,118.589" id="path-25"></path>
        <path d="M0.354,118.589 C0.354,183.758 53.184,236.589 118.354,236.589 C183.524,236.589 236.354,183.758 236.354,118.589 C236.354,53.42 183.524,0.589 118.354,0.589 C53.184,0.589 0.354,53.42 0.354,118.589" id="path-27"></path>
        <path d="M0.354,118.589 C0.354,183.758 53.184,236.589 118.354,236.589 C183.524,236.589 236.354,183.758 236.354,118.589 C236.354,53.42 183.524,0.589 118.354,0.589 C53.184,0.589 0.354,53.42 0.354,118.589" id="path-29"></path>
        <path d="M0.354,118.589 C0.354,183.758 53.184,236.589 118.354,236.589 C183.524,236.589 236.354,183.758 236.354,118.589 C236.354,53.42 183.524,0.589 118.354,0.589 C53.184,0.589 0.354,53.42 0.354,118.589" id="path-31"></path>
        <path d="M0.354,118.589 C0.354,183.758 53.184,236.589 118.354,236.589 C183.524,236.589 236.354,183.758 236.354,118.589 C236.354,53.42 183.524,0.589 118.354,0.589 C53.184,0.589 0.354,53.42 0.354,118.589" id="path-33"></path>
        <path d="M0.354,118.589 C0.354,183.758 53.184,236.589 118.354,236.589 C183.524,236.589 236.354,183.758 236.354,118.589 C236.354,53.42 183.524,0.589 118.354,0.589 C53.184,0.589 0.354,53.42 0.354,118.589" id="path-35"></path>
        <path d="M0.354,118.589 C0.354,183.758 53.184,236.589 118.354,236.589 C183.524,236.589 236.354,183.758 236.354,118.589 C236.354,53.42 183.524,0.589 118.354,0.589 C53.184,0.589 0.354,53.42 0.354,118.589" id="path-37"></path>
        <path d="M0.354,118.589 C0.354,183.758 53.184,236.589 118.354,236.589 C183.524,236.589 236.354,183.758 236.354,118.589 C236.354,53.42 183.524,0.589 118.354,0.589 C53.184,0.589 0.354,53.42 0.354,118.589" id="path-39"></path>
        <path d="M0.354,118.589 C0.354,183.758 53.184,236.589 118.354,236.589 C183.524,236.589 236.354,183.758 236.354,118.589 C236.354,53.42 183.524,0.589 118.354,0.589 C53.184,0.589 0.354,53.42 0.354,118.589" id="path-41"></path>
        <path d="M0.354,118.589 C0.354,183.758 53.184,236.589 118.354,236.589 C183.524,236.589 236.354,183.758 236.354,118.589 C236.354,53.42 183.524,0.589 118.354,0.589 C53.184,0.589 0.354,53.42 0.354,118.589" id="path-43"></path>
        <path d="M0.354,118.589 C0.354,183.758 53.184,236.589 118.354,236.589 C183.524,236.589 236.354,183.758 236.354,118.589 C236.354,53.42 183.524,0.589 118.354,0.589 C53.184,0.589 0.354,53.42 0.354,118.589" id="path-45"></path>
        <path d="M0.354,118.589 C0.354,183.758 53.184,236.589 118.354,236.589 C183.524,236.589 236.354,183.758 236.354,118.589 C236.354,53.42 183.524,0.589 118.354,0.589 C53.184,0.589 0.354,53.42 0.354,118.589" id="path-47"></path>
        <path d="M0.354,118.589 C0.354,183.758 53.184,236.589 118.354,236.589 C183.524,236.589 236.354,183.758 236.354,118.589 C236.354,53.42 183.524,0.589 118.354,0.589 C53.184,0.589 0.354,53.42 0.354,118.589" id="path-49"></path>
        <path d="M0.354,118.589 C0.354,183.758 53.184,236.589 118.354,236.589 C183.524,236.589 236.354,183.758 236.354,118.589 C236.354,53.42 183.524,0.589 118.354,0.589 C53.184,0.589 0.354,53.42 0.354,118.589" id="path-51"></path>
        <path d="M0.354,118.589 C0.354,183.758 53.184,236.589 118.354,236.589 C183.524,236.589 236.354,183.758 236.354,118.589 C236.354,53.42 183.524,0.589 118.354,0.589 C53.184,0.589 0.354,53.42 0.354,118.589" id="path-53"></path>
        <path d="M0.354,118.589 C0.354,183.758 53.184,236.589 118.354,236.589 C183.524,236.589 236.354,183.758 236.354,118.589 C236.354,53.42 183.524,0.589 118.354,0.589 C53.184,0.589 0.354,53.42 0.354,118.589" id="path-55"></path>
        <path d="M0.354,118.589 C0.354,183.758 53.184,236.589 118.354,236.589 C183.524,236.589 236.354,183.758 236.354,118.589 C236.354,53.42 183.524,0.589 118.354,0.589 C53.184,0.589 0.354,53.42 0.354,118.589" id="path-57"></path>
        <path d="M0.354,118.589 C0.354,183.758 53.184,236.589 118.354,236.589 C183.524,236.589 236.354,183.758 236.354,118.589 C236.354,53.42 183.524,0.589 118.354,0.589 C53.184,0.589 0.354,53.42 0.354,118.589" id="path-59"></path>
        <path d="M0.354,118.589 C0.354,183.758 53.184,236.589 118.354,236.589 C183.524,236.589 236.354,183.758 236.354,118.589 C236.354,53.42 183.524,0.589 118.354,0.589 C53.184,0.589 0.354,53.42 0.354,118.589" id="path-61"></path>
        <path d="M0.354,118.589 C0.354,183.758 53.184,236.589 118.354,236.589 C183.524,236.589 236.354,183.758 236.354,118.589 C236.354,53.42 183.524,0.589 118.354,0.589 C53.184,0.589 0.354,53.42 0.354,118.589" id="path-63"></path>
        <path d="M0.354,118.589 C0.354,183.758 53.184,236.589 118.354,236.589 C183.524,236.589 236.354,183.758 236.354,118.589 C236.354,53.42 183.524,0.589 118.354,0.589 C53.184,0.589 0.354,53.42 0.354,118.589" id="path-65"></path>
        <path d="M0.354,118.589 C0.354,183.758 53.184,236.589 118.354,236.589 C183.524,236.589 236.354,183.758 236.354,118.589 C236.354,53.42 183.524,0.589 118.354,0.589 C53.184,0.589 0.354,53.42 0.354,118.589" id="path-67"></path>
        <path d="M0.354,118.589 C0.354,183.758 53.184,236.589 118.354,236.589 C183.524,236.589 236.354,183.758 236.354,118.589 C236.354,53.42 183.524,0.589 118.354,0.589 C53.184,0.589 0.354,53.42 0.354,118.589" id="path-69"></path>
        <path d="M0.354,118.589 C0.354,183.758 53.184,236.589 118.354,236.589 C183.524,236.589 236.354,183.758 236.354,118.589 C236.354,53.42 183.524,0.589 118.354,0.589 C53.184,0.589 0.354,53.42 0.354,118.589" id="path-71"></path>
        <path d="M0.354,118.589 C0.354,183.758 53.184,236.589 118.354,236.589 C183.524,236.589 236.354,183.758 236.354,118.589 C236.354,53.42 183.524,0.589 118.354,0.589 C53.184,0.589 0.354,53.42 0.354,118.589" id="path-73"></path>
    </defs>
    <g id="1011-banner-main-feed" stroke="none" stroke-width="1" fill="none" fill-rule="evenodd">
        <g id="1011-banner-main-feed-/log-in" transform="translate(-1051.000000, -124.000000)">
            <g id="promo1-copy" transform="translate(0.000000, 64.000000)">
                <g id="Group" transform="translate(1049.000000, 60.000000)">
                    <g id="Group-3" transform="translate(0.000000, 0.265000)">
                        <mask id="mask-2" fill="white">
                            <use xlink:href="#path-1"></use>
                        </mask>
                        <g id="Clip-2"></g>
                        <path d="M-115.6465,161.5889 L124.8535,-78.9111" id="Stroke-1" stroke="#FED031" mask="url(#mask-2)"></path>
                    </g>
                    <g id="Group-6" transform="translate(0.000000, 0.265000)">
                        <mask id="mask-4" fill="white">
                            <use xlink:href="#path-3"></use>
                        </mask>
                        <g id="Clip-5"></g>
                        <path d="M-110.8686,166.3667 C-110.5076,166.1167 133.7004,-75.5643 133.7004,-75.5643" id="Stroke-4" stroke="#FED031" mask="url(#mask-4)"></path>
                    </g>
                    <g id="Group-9" transform="translate(0.000000, 0.265000)">
                        <mask id="mask-6" fill="white">
                            <use xlink:href="#path-5"></use>
                        </mask>
                        <g id="Clip-8"></g>
                        <path d="M-106.0908,171.1446 C-105.3688,170.6446 142.5482,-72.2164 142.5482,-72.2164" id="Stroke-7" stroke="#FED031" mask="url(#mask-6)"></path>
                    </g>
                    <g id="Group-12" transform="translate(0.000000, 0.265000)">
                        <mask id="mask-8" fill="white">
                            <use xlink:href="#path-7"></use>
                        </mask>
                        <g id="Clip-11"></g>
                        <path d="M-101.3129,175.9224 C-100.2299,175.1724 151.3951,-68.8696 151.3951,-68.8696" id="Stroke-10" stroke="#FED031" mask="url(#mask-8)"></path>
                    </g>
                    <g id="Group-15" transform="translate(0.000000, 0.265000)">
                        <mask id="mask-10" fill="white">
                            <use xlink:href="#path-9"></use>
                        </mask>
                        <g id="Clip-14"></g>
                        <path d="M-96.5351,180.7002 C-95.0911,179.7002 160.2419,-65.5228 160.2419,-65.5228" id="Stroke-13" stroke="#FED031" mask="url(#mask-10)"></path>
                    </g>
                    <g id="Group-18" transform="translate(0.000000, 0.265000)">
                        <mask id="mask-12" fill="white">
                            <use xlink:href="#path-11"></use>
                        </mask>
                        <g id="Clip-17"></g>
                        <path d="M-91.7578,185.4776 C-89.9518,184.2276 169.0902,-62.1744 169.0902,-62.1744" id="Stroke-16" stroke="#FED031" mask="url(#mask-12)"></path>
                    </g>
                    <g id="Group-21" transform="translate(0.000000, 0.265000)">
                        <mask id="mask-14" fill="white">
                            <use xlink:href="#path-13"></use>
                        </mask>
                        <g id="Clip-20"></g>
                        <path d="M-86.9799,190.2554 C-84.8129,188.7554 177.9371,-58.8276 177.9371,-58.8276" id="Stroke-19" stroke="#FED031" mask="url(#mask-14)"></path>
                    </g>
                    <g id="Group-24" transform="translate(0.000000, 0.265000)">
                        <mask id="mask-16" fill="white">
                            <use xlink:href="#path-15"></use>
                        </mask>
                        <g id="Clip-23"></g>
                        <path d="M-82.2021,195.0332 C-79.6741,193.2832 186.7839,-55.4808 186.7839,-55.4808" id="Stroke-22" stroke="#FED031" mask="url(#mask-16)"></path>
                    </g>
                    <g id="Group-27" transform="translate(0.000000, 0.265000)">
                        <mask id="mask-18" fill="white">
                            <use xlink:href="#path-17"></use>
                        </mask>
                        <g id="Clip-26"></g>
                        <path d="M-77.4243,199.8111 C-74.5353,197.8111 195.6307,-52.1329 195.6307,-52.1329" id="Stroke-25" stroke="#FED031" mask="url(#mask-18)"></path>
                    </g>
                    <g id="Group-30" transform="translate(0.000000, 0.265000)">
                        <mask id="mask-20" fill="white">
                            <use xlink:href="#path-19"></use>
                        </mask>
                        <g id="Clip-29"></g>
                        <path d="M-72.6464,204.5889 C-69.3964,202.3389 204.4786,-48.7861 204.4786,-48.7861" id="Stroke-28" stroke="#FED031" mask="url(#mask-20)"></path>
                    </g>
                    <g id="Group-33" transform="translate(0.000000, 0.265000)">
                        <mask id="mask-22" fill="white">
                            <use xlink:href="#path-21"></use>
                        </mask>
                        <g id="Clip-32"></g>
                        <path d="M-67.8686,209.3667 C-64.2576,206.8667 213.3264,-45.4393 213.3264,-45.4393" id="Stroke-31" stroke="#FED031" mask="url(#mask-22)"></path>
                    </g>
                    <g id="Group-36" transform="translate(0.000000, 0.265000)">
                        <mask id="mask-24" fill="white">
                            <use xlink:href="#path-23"></use>
                        </mask>
                        <g id="Clip-35"></g>
                        <path d="M-63.0908,214.1446 C-59.1188,211.3946 222.1732,-42.0914 222.1732,-42.0914" id="Stroke-34" stroke="#FED031" mask="url(#mask-24)"></path>
                    </g>
                    <g id="Group-39" transform="translate(0.000000, 0.265000)">
                        <mask id="mask-26" fill="white">
                            <use xlink:href="#path-25"></use>
                        </mask>
                        <g id="Clip-38"></g>
                        <path d="M-58.3129,218.9224 C-53.9799,215.9224 231.0201,-38.7446 231.0201,-38.7446" id="Stroke-37" stroke="#FED031" mask="url(#mask-26)"></path>
                    </g>
                    <g id="Group-42" transform="translate(0.000000, 0.265000)">
                        <mask id="mask-28" fill="white">
                            <use xlink:href="#path-27"></use>
                        </mask>
                        <g id="Clip-41"></g>
                        <path d="M-53.5351,223.7002 C-48.8411,220.4502 239.8669,-35.3978 239.8669,-35.3978" id="Stroke-40" stroke="#FED031" mask="url(#mask-28)"></path>
                    </g>
                    <g id="Group-45" transform="translate(0.000000, 0.265000)">
                        <mask id="mask-30" fill="white">
                            <use xlink:href="#path-29"></use>
                        </mask>
                        <g id="Clip-44"></g>
                        <path d="M-48.7578,228.4776 C-43.7018,224.9776 248.7152,-32.0494 248.7152,-32.0494" id="Stroke-43" stroke="#FED031" mask="url(#mask-30)"></path>
                    </g>
                    <g id="Group-48" transform="translate(0.000000, 0.265000)">
                        <mask id="mask-32" fill="white">
                            <use xlink:href="#path-31"></use>
                        </mask>
                        <g id="Clip-47"></g>
                        <path d="M-43.9799,233.2559 C-38.5629,229.5059 257.5621,-28.7021 257.5621,-28.7021" id="Stroke-46" stroke="#FED031" mask="url(#mask-32)"></path>
                    </g>
                    <g id="Group-51" transform="translate(0.000000, 0.265000)">
                        <mask id="mask-34" fill="white">
                            <use xlink:href="#path-33"></use>
                        </mask>
                        <g id="Clip-50"></g>
                        <path d="M-39.2021,238.0332 C-33.4241,234.0332 266.4089,-25.3558 266.4089,-25.3558" id="Stroke-49" stroke="#FED031" mask="url(#mask-34)"></path>
                    </g>
                    <g id="Group-54" transform="translate(0.000000, 0.265000)">
                        <mask id="mask-36" fill="white">
                            <use xlink:href="#path-35"></use>
                        </mask>
                        <g id="Clip-53"></g>
                        <path d="M-34.4243,242.8116 C-28.2853,238.5616 275.2557,-22.0084 275.2557,-22.0084" id="Stroke-52" stroke="#FED031" mask="url(#mask-36)"></path>
                    </g>
                    <g id="Group-57" transform="translate(0.000000, 0.265000)">
                        <mask id="mask-38" fill="white">
                            <use xlink:href="#path-37"></use>
                        </mask>
                        <g id="Clip-56"></g>
                        <path d="M-29.6464,247.5889 C-23.1464,243.0889 284.1036,-18.6611 284.1036,-18.6611" id="Stroke-55" stroke="#FED031" mask="url(#mask-38)"></path>
                    </g>
                    <g id="Group-60" transform="translate(0.000000, 0.265000)">
                        <mask id="mask-40" fill="white">
                            <use xlink:href="#path-39"></use>
                        </mask>
                        <g id="Clip-59"></g>
                        <path d="M-24.8686,252.3662 C-18.0076,247.6162 292.9514,-15.3138 292.9514,-15.3138" id="Stroke-58" stroke="#FED031" mask="url(#mask-40)"></path>
                    </g>
                    <g id="Group-63" transform="translate(0.000000, 0.265000)">
                        <mask id="mask-42" fill="white">
                            <use xlink:href="#path-41"></use>
                        </mask>
                        <g id="Clip-62"></g>
                        <path d="M-20.0908,257.1446 C-12.8688,252.1446 301.7982,-11.9664 301.7982,-11.9664" id="Stroke-61" stroke="#FED031" mask="url(#mask-42)"></path>
                    </g>
                    <g id="Group-66" transform="translate(0.000000, 0.265000)">
                        <mask id="mask-44" fill="white">
                            <use xlink:href="#path-43"></use>
                        </mask>
                        <g id="Clip-65"></g>
                        <path d="M-15.3129,261.9219 C-7.7299,256.6719 310.6451,-8.6201 310.6451,-8.6201" id="Stroke-64" stroke="#FED031" mask="url(#mask-44)"></path>
                    </g>
                    <g id="Group-69" transform="translate(0.000000, 0.265000)">
                        <mask id="mask-46" fill="white">
                            <use xlink:href="#path-45"></use>
                        </mask>
                        <g id="Clip-68"></g>
                        <path d="M-10.5351,266.7002 C-2.5911,261.2002 319.4919,-5.2728 319.4919,-5.2728" id="Stroke-67" stroke="#FED031" mask="url(#mask-46)"></path>
                    </g>
                    <g id="Group-72" transform="translate(0.000000, 0.265000)">
                        <mask id="mask-48" fill="white">
                            <use xlink:href="#path-47"></use>
                        </mask>
                        <g id="Clip-71"></g>
                        <path d="M-5.7578,271.4776 C2.5482,265.7276 328.3402,-1.9244 328.3402,-1.9244" id="Stroke-70" stroke="#FED031" mask="url(#mask-48)"></path>
                    </g>
                    <g id="Group-75" transform="translate(0.000000, 0.265000)">
                        <mask id="mask-50" fill="white">
                            <use xlink:href="#path-49"></use>
                        </mask>
                        <g id="Clip-74"></g>
                        <path d="M-0.9799,276.2559 C7.6871,270.2559 337.1871,1.4229 337.1871,1.4229" id="Stroke-73" stroke="#FED031" mask="url(#mask-50)"></path>
                    </g>
                    <g id="Group-78" transform="translate(0.000000, 0.265000)">
                        <mask id="mask-52" fill="white">
                            <use xlink:href="#path-51"></use>
                        </mask>
                        <g id="Clip-77"></g>
                        <path d="M3.7979,281.0332 C12.8259,274.7832 346.0339,4.7692 346.0339,4.7692" id="Stroke-76" stroke="#FED031" mask="url(#mask-52)"></path>
                    </g>
                    <g id="Group-81" transform="translate(0.000000, 0.265000)">
                        <mask id="mask-54" fill="white">
                            <use xlink:href="#path-53"></use>
                        </mask>
                        <g id="Clip-80"></g>
                        <path d="M8.5757,285.8116 C17.9647,279.3116 354.8807,8.1166 354.8807,8.1166" id="Stroke-79" stroke="#FED031" mask="url(#mask-54)"></path>
                    </g>
                    <g id="Group-84" transform="translate(0.000000, 0.265000)">
                        <mask id="mask-56" fill="white">
                            <use xlink:href="#path-55"></use>
                        </mask>
                        <g id="Clip-83"></g>
                        <path d="M13.3535,290.5889 C23.1035,283.8389 363.7285,11.4639 363.7285,11.4639" id="Stroke-82" stroke="#FED031" mask="url(#mask-56)"></path>
                    </g>
                    <g id="Group-87" transform="translate(0.000000, 0.265000)">
                        <mask id="mask-58" fill="white">
                            <use xlink:href="#path-57"></use>
                        </mask>
                        <g id="Clip-86"></g>
                        <path d="M18.1314,295.3662 C28.2424,288.3662 372.5764,14.8112 372.5764,14.8112" id="Stroke-85" stroke="#FED031" mask="url(#mask-58)"></path>
                    </g>
                    <g id="Group-90" transform="translate(0.000000, 0.265000)">
                        <mask id="mask-60" fill="white">
                            <use xlink:href="#path-59"></use>
                        </mask>
                        <g id="Clip-89"></g>
                        <path d="M22.9092,300.1446 C33.3812,292.8946 381.4232,18.1586 381.4232,18.1586" id="Stroke-88" stroke="#FED031" mask="url(#mask-60)"></path>
                    </g>
                    <g id="Group-93" transform="translate(0.000000, 0.265000)">
                        <mask id="mask-62" fill="white">
                            <use xlink:href="#path-61"></use>
                        </mask>
                        <g id="Clip-92"></g>
                        <path d="M27.687,304.9219 C38.52,297.4219 390.27,21.5049 390.27,21.5049" id="Stroke-91" stroke="#FED031" mask="url(#mask-62)"></path>
                    </g>
                    <g id="Group-96" transform="translate(0.000000, 0.265000)">
                        <mask id="mask-64" fill="white">
                            <use xlink:href="#path-63"></use>
                        </mask>
                        <g id="Clip-95"></g>
                        <path d="M32.4649,309.7002 C43.6589,301.9502 399.1169,24.8522 399.1169,24.8522" id="Stroke-94" stroke="#FED031" mask="url(#mask-64)"></path>
                    </g>
                    <g id="Group-99" transform="translate(0.000000, 0.265000)">
                        <mask id="mask-66" fill="white">
                            <use xlink:href="#path-65"></use>
                        </mask>
                        <g id="Clip-98"></g>
                        <path d="M37.2422,314.4776 C48.7982,306.4776 407.9652,28.2006 407.9652,28.2006" id="Stroke-97" stroke="#FED031" mask="url(#mask-66)"></path>
                    </g>
                    <g id="Group-102" transform="translate(0.000000, 0.265000)">
                        <mask id="mask-68" fill="white">
                            <use xlink:href="#path-67"></use>
                        </mask>
                        <g id="Clip-101"></g>
                        <path d="M42.0201,319.2559 C53.9371,311.0059 416.8121,31.5479 416.8121,31.5479" id="Stroke-100" stroke="#FED031" mask="url(#mask-68)"></path>
                    </g>
                    <g id="Group-105" transform="translate(0.000000, 0.265000)">
                        <mask id="mask-70" fill="white">
                            <use xlink:href="#path-69"></use>
                        </mask>
                        <g id="Clip-104"></g>
                        <path d="M46.7979,324.0332 C59.0759,315.5332 425.6589,34.8942 425.6589,34.8942" id="Stroke-103" stroke="#FED031" mask="url(#mask-70)"></path>
                    </g>
                    <g id="Group-108" transform="translate(0.000000, 0.265000)">
                        <mask id="mask-72" fill="white">
                            <use xlink:href="#path-71"></use>
                        </mask>
                        <g id="Clip-107"></g>
                        <path d="M51.5757,328.8116 C64.2147,320.0616 434.5057,38.2416 434.5057,38.2416" id="Stroke-106" stroke="#FED031" mask="url(#mask-72)"></path>
                    </g>
                    <g id="Group-111" transform="translate(0.000000, 0.265000)">
                        <mask id="mask-74" fill="white">
                            <use xlink:href="#path-73"></use>
                        </mask>
                        <g id="Clip-110"></g>
                        <path d="M56.3535,333.5889 C69.3535,324.5889 443.3535,41.5889 443.3535,41.5889" id="Stroke-109" stroke="#FED031" mask="url(#mask-74)"></path>
                    </g>
                </g>
            </g>
        </g>
    </g>
</svg>