<?xml version="1.0" encoding="iso-8859-1"?>
<!-- Generator: Adobe Illustrator 18.0.0, SVG Export Plug-In . SVG Version: 6.00 Build 0)  -->
<!DOCTYPE svg PUBLIC "-//W3C//DTD SVG 1.1//EN" "http://www.w3.org/Graphics/SVG/1.1/DTD/svg11.dtd">
<svg version="1.1" id="Capa_1" xmlns="http://www.w3.org/2000/svg" xmlns:xlink="http://www.w3.org/1999/xlink" x="0px" y="0px"
	 viewBox="0 0 59 59" style="enable-background:new 0 0 59 59;" xml:space="preserve">
<g>
	<path style="fill:#E8D5B2;" d="M45.94,5H13.06c-0.862,0-1.56,0.699-1.56,1.56V57.44c0,0.862,0.699,1.56,1.56,1.56H45.94
		c0.862,0,1.56-0.699,1.56-1.56V6.56C47.5,5.699,46.801,5,45.94,5z M29.5,17c-2.209,0-4-1.791-4-4c0-2.209,1.791-4,4-4s4,1.791,4,4
		C33.5,15.209,31.709,17,29.5,17z"/>
	
	<line x1="29.5" y1="9" x2="29.5" y2="-40" style="stroke:rgb(255,63,85);stroke-width:2" />
	
	//<path style="fill:#CBB292;" d="M11.5,53v4.44c0,0.862,0.699,1.56,1.56,1.56H45.94c0.862,0,1.56-0.699,1.56-1.56V53H11.5z"/>
</g>
<g>
</g>
<g>
</g>
<g>
</g>
<g>
</g>
<g>
</g>
<g>
</g>
<g>
</g>
<g>
</g>
<g>
</g>
<g>
</g>
<g>
</g>
<g>
</g>
<g>
</g>
<g>
</g>
<g>
</g>
</svg>
